<?xml version="1.0" standalone="no"?>
<!DOCTYPE svg PUBLIC "-//W3C//DTD SVG 20010904//EN"
 "http://www.w3.org/TR/2001/REC-SVG-20010904/DTD/svg10.dtd">
<svg version="1.0" xmlns="http://www.w3.org/2000/svg"
 width="157.000000pt" height="114.000000pt" viewBox="0 0 157.000000 114.000000"
 preserveAspectRatio="xMidYMid meet">
<metadata>
Created by potrace 1.10, written by Peter Selinger 2001-2011
</metadata>
<g transform="translate(0.000000,114.000000) scale(0.100000,-0.100000)"
fill="#000000" stroke="none">
<path d="M495 1021 c-104 -3 -196 -10 -202 -14 -7 -5 -25 -33 -39 -63 -23 -48
-26 -70 -31 -202 -3 -81 -6 -235 -7 -342 -1 -215 4 -238 65 -274 37 -22 153
-33 164 -16 4 7 7 174 7 371 -1 292 1 359 13 369 10 8 110 10 359 7 l346 -3 0
24 c0 41 -31 93 -72 120 -39 25 -43 26 -226 27 -103 1 -272 -1 -377 -4z m550
-42 c45 -12 95 -67 72 -81 -6 -4 -155 -8 -330 -8 -307 0 -319 -1 -340 -21 -22
-20 -22 -25 -24 -327 -2 -284 -9 -435 -20 -404 -3 7 -25 12 -61 12 -41 0 -53
3 -42 10 13 9 13 10 0 10 -9 0 -24 9 -33 21 -17 19 -18 43 -13 350 6 358 10
381 64 427 26 23 31 24 162 18 74 -4 160 -2 190 2 69 11 322 4 375 -9z"/>
<path d="M1236 974 c-4 -14 -6 -125 -6 -247 0 -122 1 -228 0 -236 0 -10 -3
-11 -14 -2 -9 8 -69 11 -192 9 l-179 -3 0 -54 c1 -46 5 -57 29 -77 26 -23 35
-24 169 -25 78 0 150 -2 160 -4 30 -6 13 18 -19 27 -16 4 -83 10 -149 12 -66
2 -127 7 -136 10 -11 5 -16 19 -15 44 l1 37 158 2 c203 1 207 3 207 52 0 22 5
41 11 43 9 3 9 10 2 23 -15 28 -14 305 0 347 10 27 18 34 44 36 48 5 134 -58
140 -103 1 -11 2 -166 3 -343 0 -349 -1 -357 -53 -396 -27 -20 -42 -21 -367
-24 -212 -2 -354 1 -378 7 -21 6 -51 24 -66 40 -24 25 -26 32 -16 50 11 22 14
22 341 21 182 -1 334 2 337 6 4 4 0 5 -8 2 -9 -3 -23 -1 -31 6 -11 8 -113 10
-354 8 l-337 -3 6 -42 c8 -49 36 -83 91 -108 36 -17 71 -19 387 -19 360 0 383
2 426 43 52 48 53 54 55 415 2 266 -1 344 -12 369 -7 18 -16 31 -20 28 -4 -2
-24 14 -45 36 -37 37 -41 39 -101 39 -59 0 -63 -2 -69 -26z"/>
<path d="M628 714 c-9 -9 -11 -106 -2 -128 5 -13 24 -16 99 -16 90 0 93 1 99
24 9 35 -3 82 -26 103 -14 13 -40 19 -91 21 -40 2 -75 0 -79 -4z m122 -44 c0
-5 6 -10 14 -10 18 0 30 -30 16 -44 -11 -11 -94 -11 -111 -1 -10 7 -12 48 -2
58 10 11 83 8 83 -3z"/>
<path d="M1230 292 c0 -29 5 -52 10 -52 6 0 10 13 10 29 0 16 4 31 9 33 4 2 0
12 -10 22 -19 19 -19 18 -19 -32z"/>
</g>
</svg>
