<svg version="1.1" id="Layer_1" xmlns="http://www.w3.org/2000/svg" xmlns:xlink="http://www.w3.org/1999/xlink" x="0px" y="0px"
	 width="100%" viewBox="0 0 157 114" enable-background="new 0 0 157 114" xml:space="preserve">
<path fill="#000000" opacity="1.000000" stroke="none" 
	d="
M1.000000,45.000000 
	C1.000000,30.000004 1.000000,15.500007 1.000000,1.000008 
	C53.333317,1.000005 105.666634,1.000005 157.999969,1.000003 
	C157.999969,38.999973 157.999969,76.999947 157.999985,114.999939 
	C105.666702,114.999962 53.333408,114.999962 1.000056,114.999985 
	C1.000000,91.833336 1.000000,68.666664 1.000000,45.000000 
M64.599632,107.939018 
	C64.815628,107.894455 65.031616,107.849884 65.482079,107.912399 
	C65.482079,107.912399 65.736542,107.871399 66.210182,108.666466 
	C81.684555,108.759766 97.158897,108.862946 112.633408,108.902931 
	C113.144897,108.904251 113.658043,108.264160 114.499161,107.926529 
	C114.499161,107.926529 114.807404,107.812233 115.742233,107.970512 
	C118.964592,108.299446 122.212730,109.050606 125.403099,108.855774 
	C129.896210,108.581390 134.346481,107.605843 138.972244,106.488693 
	C138.972244,106.488693 139.097992,106.037331 139.752472,105.752396 
	C144.723068,104.420296 146.775284,100.573265 148.599167,95.900398 
	C149.051651,95.342758 149.504150,94.785126 150.746658,93.778183 
	C150.830841,75.907074 150.889664,58.035755 151.036102,40.165150 
	C151.051788,38.251968 151.830582,36.340309 151.810486,34.432632 
	C151.777542,31.304247 153.516373,27.454151 149.015945,25.140476 
	C148.649231,24.649412 148.282532,24.158346 147.978027,23.046099 
	C147.369553,22.696085 146.761063,22.346071 145.848816,21.368578 
	C140.274170,14.087164 132.938934,13.683629 124.118546,16.042818 
	C123.712318,17.684048 123.306091,19.325279 122.144653,21.404913 
	C122.059082,35.255615 121.973511,49.106316 120.965370,62.995110 
	C112.099335,62.998302 103.232880,62.959290 94.367661,63.045967 
	C92.878960,63.060520 91.395569,63.619034 89.081093,63.987453 
	C87.820724,64.782425 84.586227,62.138741 85.037880,67.081093 
	C85.148369,71.817802 83.728607,76.942657 88.502907,80.521873 
	C88.502907,80.521873 88.505348,80.582817 88.638756,80.935104 
	C88.638756,80.935104 89.008301,81.008232 89.187675,81.667885 
	C90.716454,82.114983 92.242516,82.936813 93.774460,82.947937 
	C103.202652,83.016434 112.632179,82.901894 122.644073,83.165878 
	C122.992622,83.429573 123.341171,83.693260 123.855881,84.304199 
	C123.944351,84.546219 124.047112,84.782013 124.019562,85.674973 
	C123.950089,86.120453 123.880615,86.565941 122.997437,87.035515 
	C121.386909,87.690514 119.781807,88.898445 118.165009,88.914314 
	C103.294662,89.060303 88.422073,88.963577 73.550797,89.049934 
	C71.877380,89.059654 70.208000,89.764381 68.559334,90.090324 
	C68.559334,90.090324 68.498489,90.089584 67.488739,90.009605 
	C62.718555,90.358131 57.948368,90.706657 53.065346,91.544449 
	C53.107201,91.707008 53.149052,91.869560 53.045189,92.839378 
	C53.350906,94.604027 53.656624,96.368683 54.182449,98.677200 
	C54.518246,99.351891 54.854042,100.026581 55.072998,101.323402 
	C55.379025,101.569809 55.685047,101.816208 56.000435,102.000389 
	C56.000435,102.000389 55.937912,102.007492 56.086288,102.539459 
	C56.407597,102.638130 56.728905,102.736801 57.647415,103.137291 
	C59.063473,104.103928 60.479527,105.070564 62.094074,106.534988 
	C62.394955,106.707565 62.695835,106.880142 63.006737,107.000900 
	C63.006737,107.000900 62.959869,107.025146 63.087990,107.510178 
	C63.375107,107.612465 63.662224,107.714752 64.599632,107.939018 
M49.853508,31.665159 
	C51.430740,31.442263 53.007050,31.034159 54.585358,31.026270 
	C65.521355,30.971617 76.457779,31.000256 87.394058,31.002096 
	C89.382477,31.002430 91.375351,30.916409 93.358444,31.019260 
	C98.740585,31.298407 104.122406,31.942835 109.496674,31.870712 
	C112.403572,31.831703 115.294785,30.623596 118.820053,29.506926 
	C119.518036,25.270866 118.266457,21.724051 114.755707,18.337915 
	C113.849152,17.528910 112.942589,16.719906 111.751534,15.354404 
	C110.168037,14.591038 108.584541,13.827671 106.483223,13.066934 
	C106.311317,13.051364 106.139412,13.035794 105.444138,12.353285 
	C104.957054,12.256519 104.470078,12.075732 103.982864,12.075063 
	C81.695198,12.044414 59.407497,12.016051 37.119919,12.055217 
	C36.079510,12.057044 35.040188,12.678042 33.324059,13.152726 
	C28.087927,15.979580 24.448557,20.066324 23.059309,26.911966 
	C23.337290,30.296101 23.615271,33.680233 23.951815,37.913147 
	C23.945934,39.896065 23.940056,41.878983 23.282280,44.334969 
	C22.856178,45.831131 22.116974,47.315918 22.062113,48.825573 
	C21.890890,53.536999 21.978458,58.257828 21.234911,63.439117 
	C21.159550,70.489571 21.002977,77.540649 21.057596,84.590096 
	C21.074297,86.745857 21.670912,88.897125 21.986736,91.853256 
	C22.652649,102.842278 36.468262,109.885033 45.678490,103.911919 
	C45.894577,103.771782 45.900593,103.307724 46.699219,102.554962 
	C46.775070,100.034279 46.850918,97.513596 47.032478,94.571342 
	C47.032478,94.571342 46.983894,94.139450 47.777130,93.724838 
	C47.851192,82.234795 47.807770,70.742416 48.036762,59.255463 
	C48.217617,50.183094 48.733429,41.117397 49.853508,31.665159 
M64.591843,44.318283 
	C64.339729,44.461273 64.230568,44.676727 63.833939,45.689541 
	C63.557793,48.112457 63.088043,50.532215 63.048454,52.958992 
	C62.979961,57.157806 64.871017,59.394894 69.436409,59.038109 
	C72.735123,58.780315 76.074326,59.081734 79.386566,58.934029 
	C80.584305,58.880615 82.732559,58.347607 82.783089,57.860752 
	C83.140747,54.414539 83.861763,50.658863 82.827339,47.546856 
	C82.216560,45.709339 78.710289,44.068207 76.324394,43.763920 
	C72.620987,43.291611 68.762535,44.035042 64.591843,44.318283 
z"/>
<path fill="#FB8C04" opacity="1.000000" stroke="none" 
	d="
M114.807404,107.812233 
	C114.807404,107.812233 114.499161,107.926529 113.993996,107.886230 
	C113.034477,107.819016 112.580132,107.792107 111.747330,107.583054 
	C99.644859,107.244637 87.921127,107.026901 76.196632,106.973389 
	C73.096291,106.959236 69.993629,107.451157 66.601822,107.741280 
	C66.119926,107.805031 65.928230,107.838211 65.736542,107.871399 
	C65.736542,107.871399 65.482079,107.912399 65.151917,107.674988 
	C64.489738,107.270309 64.157722,107.103043 63.608971,106.955421 
	C63.392231,106.975067 62.959869,107.025146 62.959869,107.025146 
	C62.959869,107.025146 63.006737,107.000900 62.850052,106.824631 
	C62.427441,106.444633 62.161510,106.240921 61.895584,106.037201 
	C60.479527,105.070564 59.063473,104.103928 57.199623,102.801437 
	C56.531628,102.222084 56.260319,102.069382 55.937912,102.007492 
	C55.937912,102.007492 56.000435,102.000389 55.923004,101.774094 
	C55.626991,101.265617 55.408417,100.983444 55.189842,100.701271 
	C54.854042,100.026581 54.518246,99.351891 54.090252,97.988388 
	C54.041386,95.912529 54.084717,94.525482 54.352505,93.110397 
	C54.576962,93.082375 55.027512,93.041435 55.494446,93.045044 
	C77.414238,93.048645 98.867096,93.048645 121.033401,93.048645 
	C119.526779,91.758858 118.785477,91.124245 118.470078,90.540390 
	C120.587303,90.359573 122.278618,90.128006 123.964409,89.996857 
	C123.958885,90.097282 124.220688,90.147408 124.220688,90.147408 
	C124.220688,90.147408 123.927498,89.952209 123.934761,89.583282 
	C123.898399,88.480049 123.854774,87.745735 123.811142,87.011421 
	C123.880615,86.565941 123.950089,86.120453 124.246750,85.112534 
	C124.365280,83.707710 124.256607,82.865341 123.939819,81.811470 
	C123.198677,81.360870 122.665665,81.121758 121.863174,80.816322 
	C121.414536,80.703903 121.235367,80.657814 120.860420,80.338364 
	C118.421677,80.204666 116.178711,80.344337 113.498337,80.548141 
	C110.407913,80.660248 107.754883,80.708214 104.758705,80.582352 
	C101.909828,80.528488 99.404099,80.648460 96.602898,80.758263 
	C95.913246,80.749374 95.519066,80.750648 94.983322,80.665207 
	C94.510582,80.467484 94.193733,80.501091 93.401001,80.671890 
	C91.609978,80.779053 90.309143,80.893646 89.008301,81.008232 
	C89.008301,81.008232 88.638756,80.935104 88.895241,80.590843 
	C89.438591,79.489281 89.725456,78.731979 89.976944,77.649414 
	C89.301094,76.547592 88.660614,75.771049 87.822479,74.708801 
	C87.442696,73.286697 87.260559,72.150284 87.416794,70.942963 
	C93.325317,71.256630 97.887924,68.983727 102.436104,65.349258 
	C108.880386,65.230698 114.871635,65.240692 121.129211,65.453568 
	C122.588814,65.389328 123.782082,65.122215 125.155762,64.772797 
	C125.560616,64.541428 125.736191,64.347992 126.010742,63.800125 
	C125.801682,61.649994 125.444771,59.809921 125.082375,57.503159 
	C125.100197,48.704266 125.123497,40.372059 125.270096,31.847731 
	C125.312874,31.091059 125.232368,30.526512 125.146149,29.504639 
	C125.173088,25.405840 125.205734,21.764366 125.621140,18.008249 
	C132.907928,15.298013 138.593857,17.896788 143.965210,22.256481 
	C144.387192,22.320223 144.749481,22.219059 145.372955,22.095959 
	C145.806961,22.048033 145.979767,22.022043 146.152588,21.996056 
	C146.761063,22.346071 147.369553,22.696085 147.638000,23.589764 
	C145.495560,27.211767 144.927368,30.211803 147.875443,33.458748 
	C147.902969,51.069405 147.906601,68.211075 147.933594,85.352707 
	C147.939240,88.930206 148.031204,92.507576 148.083405,96.085007 
	C146.775284,100.573265 144.723068,104.420296 139.141403,105.935593 
	C138.015793,106.352753 137.501236,106.586716 136.519287,106.837433 
	C128.970383,107.173531 121.888893,107.492882 114.807404,107.812233 
z"/>
<path fill="#215C69" opacity="1.000000" stroke="none" 
	d="
M112.036034,15.910903 
	C112.942589,16.719906 113.849152,17.528910 114.923439,19.003834 
	C115.398567,21.775309 115.705963,23.880865 115.626427,26.145294 
	C113.102104,26.536530 110.965462,26.962065 108.827209,26.970255 
	C93.663658,27.028322 78.499565,26.963337 63.336216,27.044104 
	C61.231369,27.055313 59.129642,27.651310 56.596939,27.980118 
	C54.449123,27.984676 52.730839,27.985706 50.898426,27.720913 
	C48.338764,27.244846 45.893227,27.034601 43.447685,26.824358 
	C43.330036,27.304619 43.212383,27.784882 43.094730,28.265144 
	C44.371414,28.836941 45.648102,29.408739 46.882153,30.318970 
	C46.751308,31.101847 46.663101,31.546295 46.281967,32.217590 
	C45.659592,34.350651 45.050941,36.255821 45.043797,38.163242 
	C44.971165,57.562393 45.013977,76.961945 44.983723,96.361313 
	C44.974804,102.081055 44.100929,102.890114 38.311062,102.998749 
	C31.273613,103.130791 26.042986,99.099846 24.220861,91.646469 
	C24.283705,88.205528 24.142626,85.101196 23.999838,81.528412 
	C23.976812,68.660599 23.955494,56.261250 23.934177,43.861900 
	C23.940056,41.878983 23.945934,39.896065 24.146032,37.147606 
	C23.951138,32.927418 23.562025,29.472765 23.172913,26.018112 
	C24.448557,20.066324 28.087927,15.979580 33.904686,13.084005 
	C34.485313,13.015284 34.970173,13.019734 35.329208,13.228611 
	C36.657585,13.619484 37.626667,13.958684 38.596317,13.960339 
	C59.321114,13.995731 80.046021,14.012779 100.770699,13.955648 
	C102.199799,13.951709 103.627220,13.339469 105.283463,13.010899 
	C105.511505,13.011679 105.967506,13.020225 105.967506,13.020225 
	C106.139412,13.035794 106.311317,13.051364 106.845276,13.363744 
	C108.816895,14.410671 110.426460,15.160788 112.036034,15.910903 
z"/>
<path fill="#25565F" opacity="1.000000" stroke="none" 
	d="
M23.608227,44.098434 
	C23.955494,56.261250 23.976812,68.660599 23.999020,81.982712 
	C24.005585,85.931343 24.011261,88.957207 24.016937,91.983078 
	C26.042986,99.099846 31.273613,103.130791 38.311062,102.998749 
	C44.100929,102.890114 44.974804,102.081055 44.983723,96.361313 
	C45.013977,76.961945 44.971165,57.562393 45.043797,38.163242 
	C45.050941,36.255821 45.659592,34.350651 46.375771,32.679382 
	C46.836296,53.322704 46.910095,73.731079 46.983894,94.139450 
	C46.983894,94.139450 47.032478,94.571342 46.761581,95.113937 
	C46.328651,98.102608 46.166626,100.548683 46.004597,102.994759 
	C45.900593,103.307724 45.894577,103.771782 45.678490,103.911919 
	C36.468262,109.885033 22.652649,102.842278 21.994305,90.979813 
	C21.989817,81.062576 21.977760,72.018799 21.965702,62.975014 
	C21.978458,58.257828 21.890890,53.536999 22.062113,48.825573 
	C22.116974,47.315918 22.856178,45.831131 23.608227,44.098434 
z"/>
<path fill="#245C66" opacity="1.000000" stroke="none" 
	d="
M64.969810,44.263092 
	C68.762535,44.035042 72.620987,43.291611 76.324394,43.763920 
	C78.710289,44.068207 82.216560,45.709339 82.827339,47.546856 
	C83.861763,50.658863 83.140747,54.414539 82.783089,57.860752 
	C82.732559,58.347607 80.584305,58.880615 79.386566,58.934029 
	C76.074326,59.081734 72.735123,58.780315 69.436409,59.038109 
	C64.871017,59.394894 62.979961,57.157806 63.048454,52.958992 
	C63.088043,50.532215 63.557793,48.112457 64.180374,45.224800 
	C64.694481,44.612240 64.842148,44.446583 64.969810,44.263092 
z"/>
<path fill="#E68A17" opacity="1.000000" stroke="none" 
	d="
M118.044167,90.489624 
	C118.785477,91.124245 119.526779,91.758858 121.033401,93.048645 
	C98.867096,93.048645 77.414238,93.048645 55.509193,92.763741 
	C55.097584,92.107887 55.138161,91.736931 55.626938,91.331383 
	C60.216259,90.894386 64.357376,90.491982 68.498489,90.089584 
	C68.498489,90.089584 68.559334,90.090324 69.038612,90.252777 
	C85.693314,90.440033 101.868744,90.464828 118.044167,90.489624 
z"/>
<path fill="#25515B" opacity="1.000000" stroke="none" 
	d="
M51.012550,27.986736 
	C52.730839,27.985706 54.449123,27.984676 57.062332,27.984783 
	C75.427261,27.990671 92.897789,28.056705 110.366562,27.911787 
	C112.254021,27.896130 114.131340,26.657669 116.013359,25.986420 
	C115.705963,23.880865 115.398567,21.775309 115.075111,19.269218 
	C118.266457,21.724051 119.518036,25.270866 118.029907,29.648256 
	C114.583221,29.781361 111.926674,29.776535 109.270157,29.764364 
	C89.188309,29.672365 69.106453,29.578928 49.151665,29.258377 
	C49.856667,28.682789 50.434608,28.334761 51.012550,27.986736 
z"/>
<path fill="#E1922D" opacity="1.000000" stroke="none" 
	d="
M148.341278,95.992706 
	C148.031204,92.507576 147.939240,88.930206 147.933594,85.352707 
	C147.906601,68.211075 147.902969,51.069405 148.095993,33.446808 
	C148.591293,32.937382 148.882294,32.925915 149.321777,33.381699 
	C149.514160,51.256588 149.544479,68.681305 149.618134,86.105843 
	C149.629578,88.813484 149.838852,91.520294 149.956635,94.227486 
	C149.504150,94.785126 149.051651,95.342758 148.341278,95.992706 
z"/>
<path fill="#FFEFBF" opacity="1.000000" stroke="none" 
	d="
M150.351654,94.002838 
	C149.838852,91.520294 149.629578,88.813484 149.618134,86.105843 
	C149.544479,68.681305 149.514160,51.256588 149.361435,33.136543 
	C149.104202,31.963675 148.955109,31.486191 148.877563,30.637234 
	C148.899185,29.513994 148.849289,28.762230 148.856110,27.645250 
	C148.920761,26.786753 148.928711,26.293470 148.936661,25.800188 
	C153.516373,27.454151 151.777542,31.304247 151.810486,34.432632 
	C151.830582,36.340309 151.051788,38.251968 151.036102,40.165150 
	C150.889664,58.035755 150.830841,75.907074 150.351654,94.002838 
z"/>
<path fill="#CCE1E6" opacity="1.000000" stroke="none" 
	d="
M49.024605,29.485939 
	C69.106453,29.578928 89.188309,29.672365 109.270157,29.764364 
	C111.926674,29.776535 114.583221,29.781361 117.716415,29.866241 
	C115.294785,30.623596 112.403572,31.831703 109.496674,31.870712 
	C104.122406,31.942835 98.740585,31.298407 93.358444,31.019260 
	C91.375351,30.916409 89.382477,31.002430 87.394058,31.002096 
	C76.457779,31.000256 65.521355,30.971617 54.585358,31.026270 
	C53.007050,31.034159 51.430740,31.442263 49.282143,31.639509 
	C48.473991,31.085915 48.237202,30.557970 48.250961,29.883644 
	C48.675869,29.653488 48.850239,29.569714 49.024605,29.485939 
z"/>
<path fill="#3E6368" opacity="1.000000" stroke="none" 
	d="
M34.970173,13.019733 
	C34.970173,13.019734 34.485313,13.015284 34.242836,13.012980 
	C35.040188,12.678042 36.079510,12.057044 37.119919,12.055217 
	C59.407497,12.016051 81.695198,12.044414 103.982864,12.075063 
	C104.470078,12.075732 104.957054,12.256519 105.705826,12.686754 
	C105.967506,13.020225 105.511505,13.011679 104.808609,13.002457 
	C81.060539,13.002069 58.015354,13.010901 34.970173,13.019733 
z"/>
<path fill="#BCD1D9" opacity="1.000000" stroke="none" 
	d="
M48.000416,30.030025 
	C48.237202,30.557970 48.473991,31.085915 48.905632,31.831299 
	C48.733429,41.117397 48.217617,50.183094 48.036762,59.255463 
	C47.807770,70.742416 47.851192,82.234795 47.380512,93.932144 
	C46.910095,73.731079 46.836296,53.322704 46.668694,32.452538 
	C46.663101,31.546295 46.751308,31.101847 47.153046,30.288532 
	C47.644524,29.956453 47.822472,29.993238 48.000416,30.030025 
z"/>
<path fill="#E9B56A" opacity="1.000000" stroke="none" 
	d="
M95.124893,80.751930 
	C95.519066,80.750648 95.913246,80.749374 97.055786,80.830429 
	C100.236725,80.860573 102.669296,80.808380 105.101860,80.756180 
	C107.754883,80.708214 110.407913,80.660248 113.934387,80.655403 
	C116.890625,80.669594 118.973412,80.640663 121.056190,80.611732 
	C121.235367,80.657814 121.414536,80.703903 121.847504,81.144714 
	C122.087952,81.975700 122.074600,82.411972 122.061249,82.848251 
	C112.632179,82.901894 103.202652,83.016434 93.774460,82.947937 
	C92.242516,82.936813 90.716454,82.114983 89.097992,81.338058 
	C90.309143,80.893646 91.609978,80.779053 93.707794,80.721222 
	C94.711479,80.769295 94.918190,80.760612 95.124893,80.751930 
z"/>
<path fill="#FFFDDC" opacity="1.000000" stroke="none" 
	d="
M120.862885,65.250694 
	C114.871635,65.240692 108.880386,65.230698 102.043091,65.207993 
	C99.804054,65.070480 98.411072,64.945663 96.916733,64.694748 
	C96.475410,64.416458 96.197906,64.492073 95.561478,64.865776 
	C93.433411,64.933289 91.726723,64.930519 90.019783,64.674355 
	C89.982933,64.256042 89.946327,64.091125 89.909729,63.926205 
	C91.395569,63.619034 92.878960,63.060520 94.367661,63.045967 
	C103.232880,62.959290 112.099335,62.998302 121.658127,62.994896 
	C122.350883,62.994682 122.815018,63.012024 122.876953,63.245476 
	C122.938896,63.478928 122.905495,63.960838 122.618179,64.061890 
	C121.841530,64.525520 121.352203,64.888107 120.862885,65.250694 
z"/>
<path fill="#FFEFC0" opacity="1.000000" stroke="none" 
	d="
M118.470078,90.540390 
	C101.868744,90.464828 85.693314,90.440033 69.027313,90.281029 
	C70.208000,89.764381 71.877380,89.059654 73.550797,89.049934 
	C88.422073,88.963577 103.294662,89.060303 118.165009,88.914314 
	C119.781807,88.898445 121.386909,87.690514 123.404297,87.023468 
	C123.854774,87.745735 123.898399,88.480049 123.971901,89.589943 
	C124.001778,89.965523 123.969933,89.896439 123.969933,89.896439 
	C122.278618,90.128006 120.587303,90.359573 118.470078,90.540390 
z"/>
<path fill="#E78C19" opacity="1.000000" stroke="none" 
	d="
M143.905518,22.091579 
	C138.593857,17.896788 132.907928,15.298013 125.539856,17.694693 
	C125.030449,17.285480 124.985085,17.075182 124.931473,16.650543 
	C124.923210,16.436203 124.905533,16.007568 124.905533,16.007568 
	C132.938934,13.683629 140.274170,14.087164 146.000702,21.682316 
	C145.979767,22.022043 145.806961,22.048033 145.071106,22.078920 
	C144.307190,22.086407 144.106354,22.088993 143.905518,22.091579 
z"/>
<path fill="#FFF6D4" opacity="1.000000" stroke="none" 
	d="
M122.815018,63.012024 
	C122.815018,63.012024 122.350883,62.994682 122.119415,62.975849 
	C121.973511,49.106316 122.059082,35.255615 122.543800,21.653683 
	C123.169228,31.650248 123.395508,41.398041 123.647934,51.554901 
	C123.646736,53.607853 123.619408,55.251736 123.491211,57.030090 
	C123.365707,57.273750 123.299889,57.393631 123.324898,57.489918 
	C123.379456,57.699913 123.480225,57.897903 123.583694,58.398941 
	C123.613960,59.095356 123.622643,59.493626 123.489357,60.068291 
	C123.187080,60.508923 123.097717,60.795303 123.031540,61.421555 
	C122.927528,62.163532 122.871269,62.587776 122.815018,63.012024 
z"/>
<path fill="#DFB162" opacity="1.000000" stroke="none" 
	d="
M112.125778,107.765198 
	C112.580132,107.792107 113.034477,107.819016 113.829628,107.884491 
	C113.658043,108.264160 113.144897,108.904251 112.633408,108.902931 
	C97.158897,108.862946 81.684555,108.759766 65.973358,108.268936 
	C65.928230,107.838211 66.119926,107.805031 67.075958,107.814499 
	C82.602119,107.826500 97.363953,107.795845 112.125778,107.765198 
z"/>
<path fill="#FED797" opacity="1.000000" stroke="none" 
	d="
M123.621788,51.145832 
	C123.395508,41.398041 123.169228,31.650248 122.921402,21.434483 
	C123.306091,19.325279 123.712318,17.684048 124.512039,16.025192 
	C124.905533,16.007568 124.923210,16.436203 124.667877,16.988483 
	C124.272514,19.506350 124.041687,21.470379 124.007950,23.437788 
	C123.849556,32.673294 123.745346,41.909729 123.621788,51.145832 
z"/>
<path fill="#D9922B" opacity="1.000000" stroke="none" 
	d="
M115.274818,107.891373 
	C121.888893,107.492882 128.970383,107.173531 136.822601,106.871048 
	C138.000580,106.901978 138.407837,106.916039 138.815079,106.930099 
	C134.346481,107.605843 129.896210,108.581390 125.403099,108.855774 
	C122.212730,109.050606 118.964592,108.299446 115.274818,107.891373 
z"/>
<path fill="#DF9328" opacity="1.000000" stroke="none" 
	d="
M87.078430,71.013878 
	C87.260559,72.150284 87.442696,73.286697 87.875122,75.021400 
	C88.432884,76.404579 88.740341,77.189453 88.981560,78.401154 
	C88.758331,79.389084 88.601341,79.950180 88.444351,80.511276 
	C83.728607,76.942657 85.148369,71.817802 85.487991,66.609016 
	C86.673035,66.114922 87.407982,66.092911 88.149948,66.309570 
	C88.156975,66.548241 88.144066,67.025612 88.099472,67.267563 
	C88.054878,67.509514 87.993279,67.997688 87.800018,68.257172 
	C87.430649,69.349068 87.254539,70.181473 87.078430,71.013878 
z"/>
<path fill="#6C8F95" opacity="1.000000" stroke="none" 
	d="
M21.600307,63.207066 
	C21.977760,72.018799 21.989817,81.062576 22.001915,90.578400 
	C21.670912,88.897125 21.074297,86.745857 21.057596,84.590096 
	C21.002977,77.540649 21.159550,70.489571 21.600307,63.207066 
z"/>
<path fill="#F08E16" opacity="1.000000" stroke="none" 
	d="
M148.806030,31.008707 
	C148.955109,31.486191 149.104202,31.963675 149.213623,32.686310 
	C148.882294,32.925915 148.591293,32.937382 148.080399,32.977806 
	C144.927368,30.211803 145.495560,27.211767 147.606903,23.900354 
	C148.282532,24.158346 148.649231,24.649412 148.976303,25.470333 
	C148.928711,26.293470 148.920761,26.786753 148.708191,27.874603 
	C148.604385,29.315685 148.705200,30.162197 148.806030,31.008707 
z"/>
<path fill="#27616D" opacity="1.000000" stroke="none" 
	d="
M23.116112,26.465038 
	C23.562025,29.472765 23.951138,32.927418 24.116749,36.723221 
	C23.615271,33.680233 23.337290,30.296101 23.116112,26.465038 
z"/>
<path fill="#EABD79" opacity="1.000000" stroke="none" 
	d="
M67.993614,90.049591 
	C64.357376,90.491982 60.216259,90.894386 55.299408,91.239761 
	C54.075176,91.140213 53.626682,91.097694 53.178185,91.055183 
	C57.948368,90.706657 62.718555,90.358131 67.993614,90.049591 
z"/>
<path fill="#24525A" opacity="1.000000" stroke="none" 
	d="
M111.893784,15.632654 
	C110.426460,15.160788 108.816895,14.410671 107.104187,13.362429 
	C108.584541,13.827671 110.168037,14.591038 111.893784,15.632654 
z"/>
<path fill="#FEE2AC" opacity="1.000000" stroke="none" 
	d="
M88.142921,66.070900 
	C87.407982,66.092911 86.673035,66.114922 85.572800,66.174103 
	C84.586227,62.138741 87.820724,64.782425 89.495407,63.956829 
	C89.946327,64.091125 89.982933,64.256042 89.782539,64.828354 
	C89.078003,65.514130 88.610458,65.792519 88.142921,66.070900 
z"/>
<path fill="#4E7479" opacity="1.000000" stroke="none" 
	d="
M46.351906,102.774857 
	C46.166626,100.548683 46.328651,98.102608 46.708725,95.324722 
	C46.850918,97.513596 46.775070,100.034279 46.351906,102.774857 
z"/>
<path fill="#D59631" opacity="1.000000" stroke="none" 
	d="
M54.128044,93.138428 
	C54.084717,94.525482 54.041386,95.912529 53.980194,97.716461 
	C53.656624,96.368683 53.350906,94.604027 53.292290,92.602890 
	C53.757870,92.606773 53.954086,92.864113 54.128044,93.138428 
z"/>
<path fill="#EC8D17" opacity="1.000000" stroke="none" 
	d="
M88.473633,80.516571 
	C88.601341,79.950180 88.758331,79.389084 89.222435,78.402939 
	C89.529549,77.977890 90.012329,77.974686 90.012329,77.974686 
	C89.725456,78.731979 89.438591,79.489281 88.828537,80.414703 
	C88.505348,80.582817 88.502907,80.521873 88.473633,80.516571 
z"/>
<path fill="#E49533" opacity="1.000000" stroke="none" 
	d="
M122.352661,83.007065 
	C122.074600,82.411972 122.087952,81.975700 122.116974,81.211037 
	C122.665665,81.121758 123.198677,81.360870 123.820633,82.293678 
	C123.836296,83.310570 123.763008,83.633766 123.689720,83.956955 
	C123.341171,83.693260 122.992622,83.429573 122.352661,83.007065 
z"/>
<path fill="#EC8D17" opacity="1.000000" stroke="none" 
	d="
M123.772797,84.130577 
	C123.763008,83.633766 123.836296,83.310570 124.028763,82.505173 
	C124.256607,82.865341 124.365280,83.707710 124.319061,84.780830 
	C124.047112,84.782013 123.944351,84.546219 123.772797,84.130577 
z"/>
<path fill="#E39A3C" opacity="1.000000" stroke="none" 
	d="
M54.352501,93.110397 
	C53.954086,92.864113 53.757870,92.606773 53.365147,92.199265 
	C53.149052,91.869560 53.107201,91.707008 53.121765,91.299820 
	C53.626682,91.097694 54.075176,91.140213 54.851204,91.274353 
	C55.138161,91.736931 55.097584,92.107887 55.042259,92.760132 
	C55.027512,93.041435 54.576962,93.082375 54.352501,93.110397 
z"/>
<path fill="#ED9017" opacity="1.000000" stroke="none" 
	d="
M138.893661,106.709396 
	C138.407837,106.916039 138.000580,106.901978 137.290009,106.854294 
	C137.501236,106.586716 138.015793,106.352753 138.814163,106.078064 
	C139.097992,106.037331 138.972244,106.488693 138.893661,106.709396 
z"/>
<path fill="#DD9438" opacity="1.000000" stroke="none" 
	d="
M55.131420,101.012337 
	C55.408417,100.983444 55.626991,101.265617 55.918320,101.805206 
	C55.685047,101.816208 55.379025,101.569809 55.131420,101.012337 
z"/>
<path fill="#DD9438" opacity="1.000000" stroke="none" 
	d="
M56.012100,102.273476 
	C56.260319,102.069382 56.531628,102.222084 56.901024,102.650528 
	C56.728905,102.736801 56.407597,102.638130 56.012100,102.273476 
z"/>
<path fill="#ED9017" opacity="1.000000" stroke="none" 
	d="
M61.994827,106.286095 
	C62.161510,106.240921 62.427441,106.444633 62.845039,106.850533 
	C62.695835,106.880142 62.394955,106.707565 61.994827,106.286095 
z"/>
<path fill="#ED9017" opacity="1.000000" stroke="none" 
	d="
M63.023930,107.267662 
	C62.959869,107.025146 63.392231,106.975067 63.649338,107.174850 
	C63.906448,107.374634 63.949341,107.817047 63.949341,107.817047 
	C63.662224,107.714752 63.375107,107.612465 63.023930,107.267662 
z"/>
<path fill="#D9922B" opacity="1.000000" stroke="none" 
	d="
M64.274490,107.878036 
	C63.949341,107.817047 63.906448,107.374634 63.866077,107.155205 
	C64.157722,107.103043 64.489738,107.270309 65.034683,107.621445 
	C65.031616,107.849884 64.815628,107.894455 64.274490,107.878036 
z"/>
<path fill="#21525A" opacity="1.000000" stroke="none" 
	d="
M64.780823,44.290688 
	C64.842148,44.446583 64.694481,44.612240 64.395569,44.862350 
	C64.230568,44.676727 64.339729,44.461273 64.780823,44.290688 
z"/>
<path fill="#F68F0B" opacity="1.000000" stroke="none" 
	d="
M88.149948,66.309570 
	C88.610458,65.792519 89.078003,65.514130 89.782784,65.081741 
	C91.726723,64.930519 93.433411,64.933289 95.818169,64.957008 
	C96.670189,64.925583 96.844139,64.873215 97.018089,64.820847 
	C98.411072,64.945663 99.804054,65.070480 101.590057,65.336563 
	C97.887924,68.983727 93.325317,71.256630 87.416801,70.942963 
	C87.254539,70.181473 87.430649,69.349068 87.892365,68.153793 
	C88.318108,67.532867 88.306801,67.277756 88.144066,67.025612 
	C88.144066,67.025612 88.156975,66.548241 88.149948,66.309570 
z"/>
<path fill="#E09C3E" opacity="1.000000" stroke="none" 
	d="
M123.647919,51.554901 
	C123.745346,41.909729 123.849556,32.673294 124.007950,23.437788 
	C124.041687,21.470379 124.272514,19.506350 124.676132,17.202824 
	C124.985085,17.075182 125.030449,17.285480 125.157089,17.809338 
	C125.205734,21.764366 125.173088,25.405840 125.116257,29.850498 
	C125.110313,31.115744 125.128555,31.577799 125.146797,32.039856 
	C125.123497,40.372059 125.100197,48.704266 125.055901,57.936470 
	C124.979698,60.568886 124.924484,62.301304 124.543304,64.024780 
	C123.780060,63.997505 123.342781,63.979172 122.905495,63.960838 
	C122.905495,63.960838 122.938896,63.478928 122.876953,63.245476 
	C122.871269,62.587776 122.927528,62.163532 123.218094,61.268768 
	C123.690590,60.531376 123.750229,60.229256 123.631325,59.891895 
	C123.622643,59.493626 123.613960,59.095356 123.649628,58.098938 
	C123.660011,57.299068 123.626045,57.097340 123.592079,56.895615 
	C123.619408,55.251736 123.646736,53.607853 123.647919,51.554901 
z"/>
<path fill="#D9922B" opacity="1.000000" stroke="none" 
	d="
M111.747330,107.583054 
	C97.363953,107.795845 82.602119,107.826500 67.366165,107.783920 
	C69.993629,107.451157 73.096291,106.959236 76.196632,106.973389 
	C87.921127,107.026901 99.644859,107.244637 111.747330,107.583054 
z"/>
<path fill="#EC8D17" opacity="1.000000" stroke="none" 
	d="
M120.860420,80.338364 
	C118.973412,80.640663 116.890625,80.669594 114.371796,80.591263 
	C116.178711,80.344337 118.421677,80.204666 120.860420,80.338364 
z"/>
<path fill="#E78C19" opacity="1.000000" stroke="none" 
	d="
M124.869278,64.033722 
	C124.924484,62.301304 124.979698,60.568886 125.061378,58.403160 
	C125.444771,59.809921 125.801682,61.649994 125.786301,63.796432 
	C125.414009,64.102798 124.963760,64.132698 124.942352,64.105835 
	C124.920952,64.078972 124.869278,64.033722 124.869278,64.033722 
z"/>
<path fill="#E49533" opacity="1.000000" stroke="none" 
	d="
M104.758705,80.582352 
	C102.669296,80.808380 100.236725,80.860573 97.351273,80.840591 
	C99.404099,80.648460 101.909828,80.528488 104.758705,80.582352 
z"/>
<path fill="#E3A850" opacity="1.000000" stroke="none" 
	d="
M122.618179,64.061890 
	C123.342781,63.979172 123.780060,63.997505 124.543312,64.024780 
	C124.869278,64.033722 124.920952,64.078972 124.943558,64.285744 
	C124.966156,64.492516 124.975357,64.855095 124.975357,64.855095 
	C123.782082,65.122215 122.588814,65.389328 121.129211,65.453568 
	C121.352203,64.888107 121.841530,64.525520 122.618179,64.061890 
z"/>
<path fill="#F68F0B" opacity="1.000000" stroke="none" 
	d="
M89.976952,77.649414 
	C90.012329,77.974686 89.529549,77.977890 89.288673,77.976105 
	C88.740341,77.189453 88.432884,76.404579 88.072777,75.307098 
	C88.660614,75.771049 89.301094,76.547592 89.976952,77.649414 
z"/>
<path fill="#F08E16" opacity="1.000000" stroke="none" 
	d="
M143.965210,22.256481 
	C144.106354,22.088993 144.307190,22.086407 144.809891,22.100859 
	C144.749481,22.219059 144.387192,22.320223 143.965210,22.256481 
z"/>
<path fill="#E78C19" opacity="1.000000" stroke="none" 
	d="
M125.270096,31.847731 
	C125.128555,31.577799 125.110313,31.115744 125.121964,30.307827 
	C125.232368,30.526512 125.312874,31.091059 125.270096,31.847731 
z"/>
<path fill="#E39A3C" opacity="1.000000" stroke="none" 
	d="
M123.964638,89.958862 
	C123.927498,89.952209 124.220688,90.147408 124.220688,90.147408 
	C124.220688,90.147408 123.958885,90.097282 123.964409,89.996857 
	C123.969933,89.896439 124.001778,89.965523 123.964638,89.958862 
z"/>
<path fill="#E49533" opacity="1.000000" stroke="none" 
	d="
M94.983322,80.665207 
	C94.918190,80.760612 94.711479,80.769295 94.197983,80.728645 
	C94.193733,80.501091 94.510582,80.467484 94.983322,80.665207 
z"/>
<path fill="#E09C3E" opacity="1.000000" stroke="none" 
	d="
M125.155762,64.772797 
	C124.975357,64.855095 124.966156,64.492516 124.964958,64.312607 
	C124.963760,64.132698 125.414009,64.102798 125.638443,64.106491 
	C125.736191,64.347992 125.560616,64.541428 125.155762,64.772797 
z"/>
<path fill="#24525A" opacity="1.000000" stroke="none" 
	d="
M35.329208,13.228611 
	C58.015354,13.010901 81.060539,13.002069 104.580574,13.001677 
	C103.627220,13.339469 102.199799,13.951709 100.770699,13.955648 
	C80.046021,14.012779 59.321114,13.995731 38.596317,13.960339 
	C37.626667,13.958684 36.657585,13.619484 35.329208,13.228611 
z"/>
<path fill="#2B5F6E" opacity="1.000000" stroke="none" 
	d="
M115.626427,26.145294 
	C114.131340,26.657669 112.254021,27.896130 110.366562,27.911787 
	C92.897789,28.056705 75.427261,27.990671 57.491859,27.981256 
	C59.129642,27.651310 61.231369,27.055313 63.336216,27.044104 
	C78.499565,26.963337 93.663658,27.028322 108.827209,26.970255 
	C110.965462,26.962065 113.102104,26.536530 115.626427,26.145294 
z"/>
<path fill="#25565F" opacity="1.000000" stroke="none" 
	d="
M48.250961,29.883644 
	C47.822472,29.993238 47.644524,29.956453 47.195679,29.950102 
	C45.648102,29.408739 44.371414,28.836941 43.094730,28.265144 
	C43.212383,27.784882 43.330036,27.304619 43.447685,26.824358 
	C45.893227,27.034601 48.338764,27.244846 50.898426,27.720913 
	C50.434608,28.334761 49.856667,28.682789 49.151665,29.258377 
	C48.850239,29.569714 48.675869,29.653488 48.250961,29.883644 
z"/>
<path fill="#27616D" opacity="1.000000" stroke="none" 
	d="
M24.220860,91.646469 
	C24.011261,88.957207 24.005585,85.931343 24.000727,82.451172 
	C24.142626,85.101196 24.283705,88.205528 24.220860,91.646469 
z"/>
<path fill="#E1922D" opacity="1.000000" stroke="none" 
	d="
M148.877563,30.637234 
	C148.705200,30.162197 148.604385,29.315685 148.651489,28.239819 
	C148.849289,28.762230 148.899185,29.513994 148.877563,30.637234 
z"/>
<path fill="#FEE2AC" opacity="1.000000" stroke="none" 
	d="
M96.916733,64.694748 
	C96.844139,64.873215 96.670189,64.925583 96.239548,64.886726 
	C96.197906,64.492073 96.475410,64.416458 96.916733,64.694748 
z"/>
<path fill="#FED797" opacity="1.000000" stroke="none" 
	d="
M123.491211,57.030090 
	C123.626045,57.097340 123.660011,57.299068 123.628044,57.800797 
	C123.480225,57.897903 123.379456,57.699913 123.324898,57.489918 
	C123.299889,57.393631 123.365707,57.273750 123.491211,57.030090 
z"/>
<path fill="#FED797" opacity="1.000000" stroke="none" 
	d="
M123.489357,60.068291 
	C123.750229,60.229256 123.690590,60.531376 123.265854,60.951042 
	C123.097717,60.795303 123.187080,60.508923 123.489357,60.068291 
z"/>
<path fill="#EE9014" opacity="1.000000" stroke="none" 
	d="
M88.099472,67.267563 
	C88.306801,67.277756 88.318108,67.532867 88.085632,67.894310 
	C87.993279,67.997688 88.054878,67.509514 88.099472,67.267563 
z"/>
</svg>